<mxfile host="app.diagrams.net" modified="2024-02-26T17:32:31.680Z" agent="Mozilla/5.0 (Windows NT 10.0; Win64; x64) AppleWebKit/537.36 (KHTML, like Gecko) Chrome/121.0.0.0 Safari/537.36" etag="OT84QiYXYNIZmfK47vmm" version="23.1.6" type="device">
  <diagram name="Página-1" id="8GkgnLgsp6dvdbQdIPFC">
    <mxGraphModel dx="1434" dy="780" grid="1" gridSize="10" guides="1" tooltips="1" connect="1" arrows="1" fold="1" page="1" pageScale="1" pageWidth="827" pageHeight="1169" math="0" shadow="0">
      <root>
        <mxCell id="0" />
        <mxCell id="1" parent="0" />
        <mxCell id="50NCawq9jzBYAZodImhh-1" value="Diagrama de Casos de Uso (DCU)&lt;div&gt;Projeto: Transporte por Aplicativo&lt;/div&gt;" style="text;html=1;align=center;verticalAlign=middle;whiteSpace=wrap;rounded=0;" vertex="1" parent="1">
          <mxGeometry x="306" y="30" width="216" height="40" as="geometry" />
        </mxCell>
        <mxCell id="50NCawq9jzBYAZodImhh-4" style="rounded=0;orthogonalLoop=1;jettySize=auto;html=1;exitX=0.5;exitY=0.5;exitDx=0;exitDy=0;exitPerimeter=0;entryX=0;entryY=0.5;entryDx=0;entryDy=0;" edge="1" parent="1" source="50NCawq9jzBYAZodImhh-2" target="50NCawq9jzBYAZodImhh-3">
          <mxGeometry relative="1" as="geometry" />
        </mxCell>
        <mxCell id="50NCawq9jzBYAZodImhh-2" value="Motorista" style="shape=umlActor;verticalLabelPosition=bottom;verticalAlign=top;html=1;outlineConnect=0;" vertex="1" parent="1">
          <mxGeometry x="80" y="140" width="30" height="60" as="geometry" />
        </mxCell>
        <mxCell id="50NCawq9jzBYAZodImhh-9" value="&amp;lt;&amp;lt;include&amp;gt;&amp;gt;" style="rounded=0;orthogonalLoop=1;jettySize=auto;html=1;exitX=1;exitY=0;exitDx=0;exitDy=0;entryX=0;entryY=0.5;entryDx=0;entryDy=0;dashed=1;endArrow=open;endFill=0;" edge="1" parent="1" source="50NCawq9jzBYAZodImhh-3" target="50NCawq9jzBYAZodImhh-5">
          <mxGeometry relative="1" as="geometry" />
        </mxCell>
        <mxCell id="50NCawq9jzBYAZodImhh-19" value="&amp;lt;&amp;lt;extends&amp;gt;&amp;gt;" style="rounded=0;orthogonalLoop=1;jettySize=auto;html=1;exitX=0;exitY=0.5;exitDx=0;exitDy=0;dashed=1;endArrow=open;endFill=0;" edge="1" parent="1" source="50NCawq9jzBYAZodImhh-20" target="50NCawq9jzBYAZodImhh-17">
          <mxGeometry relative="1" as="geometry" />
        </mxCell>
        <mxCell id="50NCawq9jzBYAZodImhh-3" value="[RF001]&lt;br&gt;Cadastrar-se" style="ellipse;whiteSpace=wrap;html=1;" vertex="1" parent="1">
          <mxGeometry x="190" y="145" width="90" height="50" as="geometry" />
        </mxCell>
        <mxCell id="50NCawq9jzBYAZodImhh-5" value="Cadastrar documento" style="ellipse;whiteSpace=wrap;html=1;" vertex="1" parent="1">
          <mxGeometry x="330" y="90" width="90" height="50" as="geometry" />
        </mxCell>
        <mxCell id="50NCawq9jzBYAZodImhh-6" value="Possuir&lt;br&gt;EAR" style="ellipse;whiteSpace=wrap;html=1;" vertex="1" parent="1">
          <mxGeometry x="522" y="90" width="90" height="50" as="geometry" />
        </mxCell>
        <mxCell id="50NCawq9jzBYAZodImhh-7" value="Cadastrar Veículo" style="ellipse;whiteSpace=wrap;html=1;" vertex="1" parent="1">
          <mxGeometry x="370" y="150" width="90" height="50" as="geometry" />
        </mxCell>
        <mxCell id="50NCawq9jzBYAZodImhh-8" value="Aguardar validação do Cadastro" style="ellipse;whiteSpace=wrap;html=1;" vertex="1" parent="1">
          <mxGeometry x="330" y="210" width="90" height="50" as="geometry" />
        </mxCell>
        <mxCell id="50NCawq9jzBYAZodImhh-11" value="" style="rounded=0;orthogonalLoop=1;jettySize=auto;html=1;exitX=0.991;exitY=0.596;exitDx=0;exitDy=0;entryX=0;entryY=0.5;entryDx=0;entryDy=0;dashed=1;endArrow=open;endFill=0;exitPerimeter=0;" edge="1" parent="1" source="50NCawq9jzBYAZodImhh-3" target="50NCawq9jzBYAZodImhh-7">
          <mxGeometry relative="1" as="geometry">
            <mxPoint x="277" y="162" as="sourcePoint" />
            <mxPoint x="340" y="125" as="targetPoint" />
          </mxGeometry>
        </mxCell>
        <mxCell id="50NCawq9jzBYAZodImhh-12" value="" style="rounded=0;orthogonalLoop=1;jettySize=auto;html=1;exitX=1;exitY=1;exitDx=0;exitDy=0;entryX=0;entryY=0;entryDx=0;entryDy=0;dashed=1;endArrow=open;endFill=0;" edge="1" parent="1" source="50NCawq9jzBYAZodImhh-3" target="50NCawq9jzBYAZodImhh-8">
          <mxGeometry relative="1" as="geometry">
            <mxPoint x="289" y="185" as="sourcePoint" />
            <mxPoint x="380" y="185" as="targetPoint" />
          </mxGeometry>
        </mxCell>
        <mxCell id="50NCawq9jzBYAZodImhh-13" value="" style="rounded=0;orthogonalLoop=1;jettySize=auto;html=1;entryX=0;entryY=0.5;entryDx=0;entryDy=0;dashed=1;endArrow=open;endFill=0;exitX=1;exitY=0.5;exitDx=0;exitDy=0;" edge="1" parent="1" source="50NCawq9jzBYAZodImhh-5" target="50NCawq9jzBYAZodImhh-6">
          <mxGeometry x="0.0039" relative="1" as="geometry">
            <mxPoint x="490" y="150" as="sourcePoint" />
            <mxPoint x="353" y="227" as="targetPoint" />
            <mxPoint as="offset" />
          </mxGeometry>
        </mxCell>
        <mxCell id="50NCawq9jzBYAZodImhh-22" style="rounded=0;orthogonalLoop=1;jettySize=auto;html=1;exitX=1;exitY=0.5;exitDx=0;exitDy=0;dashed=1;endArrow=open;endFill=0;" edge="1" parent="1" source="50NCawq9jzBYAZodImhh-14" target="50NCawq9jzBYAZodImhh-21">
          <mxGeometry relative="1" as="geometry" />
        </mxCell>
        <mxCell id="50NCawq9jzBYAZodImhh-14" value="[RF002]&lt;br&gt;Fazer uma viagem" style="ellipse;whiteSpace=wrap;html=1;" vertex="1" parent="1">
          <mxGeometry x="190" y="395" width="90" height="50" as="geometry" />
        </mxCell>
        <mxCell id="50NCawq9jzBYAZodImhh-15" value="Motorista" style="shape=umlActor;verticalLabelPosition=bottom;verticalAlign=top;html=1;outlineConnect=0;" vertex="1" parent="1">
          <mxGeometry x="80" y="390" width="30" height="60" as="geometry" />
        </mxCell>
        <mxCell id="50NCawq9jzBYAZodImhh-16" style="rounded=0;orthogonalLoop=1;jettySize=auto;html=1;exitX=0.5;exitY=0.5;exitDx=0;exitDy=0;exitPerimeter=0;entryX=0;entryY=0.5;entryDx=0;entryDy=0;" edge="1" parent="1" source="50NCawq9jzBYAZodImhh-15" target="50NCawq9jzBYAZodImhh-14">
          <mxGeometry relative="1" as="geometry">
            <mxPoint x="105" y="230" as="sourcePoint" />
            <mxPoint x="200" y="230" as="targetPoint" />
          </mxGeometry>
        </mxCell>
        <mxCell id="50NCawq9jzBYAZodImhh-17" value="Fazer&lt;br&gt;Login" style="ellipse;whiteSpace=wrap;html=1;" vertex="1" parent="1">
          <mxGeometry x="300" y="330" width="90" height="50" as="geometry" />
        </mxCell>
        <mxCell id="50NCawq9jzBYAZodImhh-18" value="" style="rounded=0;orthogonalLoop=1;jettySize=auto;html=1;exitX=1;exitY=0;exitDx=0;exitDy=0;entryX=0;entryY=1;entryDx=0;entryDy=0;dashed=1;endArrow=open;endFill=0;" edge="1" parent="1" source="50NCawq9jzBYAZodImhh-14" target="50NCawq9jzBYAZodImhh-17">
          <mxGeometry relative="1" as="geometry">
            <mxPoint x="277" y="218" as="sourcePoint" />
            <mxPoint x="353" y="247" as="targetPoint" />
          </mxGeometry>
        </mxCell>
        <mxCell id="50NCawq9jzBYAZodImhh-20" value="[RF001]&lt;br&gt;Cadastrar-se" style="ellipse;whiteSpace=wrap;html=1;" vertex="1" parent="1">
          <mxGeometry x="450" y="280" width="90" height="50" as="geometry" />
        </mxCell>
        <mxCell id="50NCawq9jzBYAZodImhh-21" value="Aguardar passageiro" style="ellipse;whiteSpace=wrap;html=1;" vertex="1" parent="1">
          <mxGeometry x="340" y="395" width="90" height="50" as="geometry" />
        </mxCell>
        <mxCell id="50NCawq9jzBYAZodImhh-23" value="Listar &lt;br&gt;viagens" style="ellipse;whiteSpace=wrap;html=1;" vertex="1" parent="1">
          <mxGeometry x="470" y="350" width="90" height="50" as="geometry" />
        </mxCell>
        <mxCell id="50NCawq9jzBYAZodImhh-25" style="rounded=0;orthogonalLoop=1;jettySize=auto;html=1;dashed=1;endArrow=open;endFill=0;entryX=0;entryY=0.5;entryDx=0;entryDy=0;" edge="1" parent="1" source="50NCawq9jzBYAZodImhh-21" target="50NCawq9jzBYAZodImhh-23">
          <mxGeometry relative="1" as="geometry">
            <mxPoint x="290" y="430" as="sourcePoint" />
            <mxPoint x="350" y="430" as="targetPoint" />
          </mxGeometry>
        </mxCell>
        <mxCell id="50NCawq9jzBYAZodImhh-26" value="Aceitar&lt;br&gt;viagem" style="ellipse;whiteSpace=wrap;html=1;" vertex="1" parent="1">
          <mxGeometry x="470" y="430" width="90" height="50" as="geometry" />
        </mxCell>
        <mxCell id="50NCawq9jzBYAZodImhh-27" style="rounded=0;orthogonalLoop=1;jettySize=auto;html=1;dashed=1;endArrow=open;endFill=0;entryX=0;entryY=0.5;entryDx=0;entryDy=0;exitX=1;exitY=1;exitDx=0;exitDy=0;" edge="1" parent="1" source="50NCawq9jzBYAZodImhh-21" target="50NCawq9jzBYAZodImhh-26">
          <mxGeometry relative="1" as="geometry">
            <mxPoint x="428" y="413" as="sourcePoint" />
            <mxPoint x="480" y="385" as="targetPoint" />
          </mxGeometry>
        </mxCell>
        <mxCell id="50NCawq9jzBYAZodImhh-28" value="Cancelar Viagem" style="ellipse;whiteSpace=wrap;html=1;" vertex="1" parent="1">
          <mxGeometry x="170" y="510" width="90" height="50" as="geometry" />
        </mxCell>
        <mxCell id="50NCawq9jzBYAZodImhh-29" style="rounded=0;orthogonalLoop=1;jettySize=auto;html=1;dashed=1;endArrow=open;endFill=0;exitX=0.5;exitY=0;exitDx=0;exitDy=0;" edge="1" parent="1" source="50NCawq9jzBYAZodImhh-28" target="50NCawq9jzBYAZodImhh-14">
          <mxGeometry relative="1" as="geometry">
            <mxPoint x="427" y="448" as="sourcePoint" />
            <mxPoint x="480" y="465" as="targetPoint" />
          </mxGeometry>
        </mxCell>
        <mxCell id="50NCawq9jzBYAZodImhh-30" value="Iniciar&lt;br&gt;viagem" style="ellipse;whiteSpace=wrap;html=1;" vertex="1" parent="1">
          <mxGeometry x="400" y="470" width="90" height="50" as="geometry" />
        </mxCell>
        <mxCell id="50NCawq9jzBYAZodImhh-31" value="Finalizar Viagem" style="ellipse;whiteSpace=wrap;html=1;" vertex="1" parent="1">
          <mxGeometry x="360" y="530" width="90" height="50" as="geometry" />
        </mxCell>
        <mxCell id="50NCawq9jzBYAZodImhh-32" style="rounded=0;orthogonalLoop=1;jettySize=auto;html=1;exitX=1;exitY=1;exitDx=0;exitDy=0;dashed=1;endArrow=open;endFill=0;entryX=0.052;entryY=0.223;entryDx=0;entryDy=0;entryPerimeter=0;" edge="1" parent="1" source="50NCawq9jzBYAZodImhh-14" target="50NCawq9jzBYAZodImhh-30">
          <mxGeometry relative="1" as="geometry">
            <mxPoint x="290" y="430" as="sourcePoint" />
            <mxPoint x="350" y="430" as="targetPoint" />
          </mxGeometry>
        </mxCell>
        <mxCell id="50NCawq9jzBYAZodImhh-33" style="rounded=0;orthogonalLoop=1;jettySize=auto;html=1;exitX=0.668;exitY=0.963;exitDx=0;exitDy=0;dashed=1;endArrow=open;endFill=0;entryX=0.5;entryY=0;entryDx=0;entryDy=0;exitPerimeter=0;" edge="1" parent="1" source="50NCawq9jzBYAZodImhh-14" target="50NCawq9jzBYAZodImhh-31">
          <mxGeometry relative="1" as="geometry">
            <mxPoint x="277" y="448" as="sourcePoint" />
            <mxPoint x="365" y="481" as="targetPoint" />
          </mxGeometry>
        </mxCell>
        <mxCell id="50NCawq9jzBYAZodImhh-34" value="Avaliar&lt;br&gt;Viagem" style="ellipse;whiteSpace=wrap;html=1;" vertex="1" parent="1">
          <mxGeometry x="260" y="550" width="90" height="50" as="geometry" />
        </mxCell>
        <mxCell id="50NCawq9jzBYAZodImhh-36" value="&amp;lt;&amp;lt;extends&amp;gt;&amp;gt;" style="rounded=0;orthogonalLoop=1;jettySize=auto;html=1;dashed=1;endArrow=open;endFill=0;entryX=0.617;entryY=0.974;entryDx=0;entryDy=0;entryPerimeter=0;exitX=0.5;exitY=0;exitDx=0;exitDy=0;" edge="1" parent="1" target="50NCawq9jzBYAZodImhh-14" source="50NCawq9jzBYAZodImhh-34">
          <mxGeometry relative="1" as="geometry">
            <mxPoint x="320" y="520" as="sourcePoint" />
            <mxPoint x="415" y="540" as="targetPoint" />
          </mxGeometry>
        </mxCell>
        <mxCell id="50NCawq9jzBYAZodImhh-37" value="&lt;h1&gt;[RF001]&lt;/h1&gt;&lt;p&gt;Tela de cadastro de novo motorista com as funcionalidades de envio de documentos para aprovação.&lt;/p&gt;&lt;p&gt;[X]Essencial [ ]importante [ ]desejável&lt;/p&gt;" style="text;html=1;spacing=5;spacingTop=-20;whiteSpace=wrap;overflow=hidden;rounded=0;" vertex="1" parent="1">
          <mxGeometry x="500" y="145" width="210" height="125" as="geometry" />
        </mxCell>
        <mxCell id="50NCawq9jzBYAZodImhh-38" value="&lt;h1&gt;[RF002]&lt;/h1&gt;&lt;p&gt;Tela de viagens para o motorista com as funcionalidades básicas&lt;/p&gt;&lt;p&gt;[X]Essencial [ ]importante [ ]desejável&lt;/p&gt;" style="text;html=1;spacing=5;spacingTop=-20;whiteSpace=wrap;overflow=hidden;rounded=0;" vertex="1" parent="1">
          <mxGeometry x="490" y="490" width="210" height="125" as="geometry" />
        </mxCell>
      </root>
    </mxGraphModel>
  </diagram>
</mxfile>
